/* XPM */
static char * orb32x32_xpm[] = {
"32 32 256 2",
"  	c #000000",
". 	c #FCFCD0",
"+ 	c #000000",
"@ 	c #747490",
"# 	c #BE0000",
"$ 	c #33FF33",
"% 	c #310EC8",
"& 	c #000000",
"* 	c #000000",
"= 	c #000000",
"- 	c #000000",
"; 	c #000000",
"> 	c #000000",
", 	c #000000",
"' 	c #000000",
") 	c #000000",
"! 	c #000000",
"~ 	c #000000",
"{ 	c #000000",
"] 	c #000000",
"^ 	c #000000",
"/ 	c #000000",
"( 	c #000000",
"_ 	c #000000",
": 	c #000000",
"< 	c #000000",
"[ 	c #000000",
"} 	c #000000",
"| 	c #000000",
"1 	c #000000",
"2 	c #000000",
"3 	c #000000",
"4 	c #000000",
"5 	c #000000",
"6 	c #000000",
"7 	c #000000",
"8 	c #000000",
"9 	c #000000",
"0 	c #000000",
"a 	c #000000",
"b 	c #000000",
"c 	c #000000",
"d 	c #000000",
"e 	c #000000",
"f 	c #000000",
"g 	c #000000",
"h 	c #000000",
"i 	c #000000",
"j 	c #000000",
"k 	c #000000",
"l 	c #000000",
"m 	c #000000",
"n 	c #000000",
"o 	c #000000",
"p 	c #000000",
"q 	c #000000",
"r 	c #000000",
"s 	c #000000",
"t 	c #000000",
"u 	c #000000",
"v 	c #000000",
"w 	c #000000",
"x 	c #000000",
"y 	c #000000",
"z 	c #000000",
"A 	c #000000",
"B 	c #000000",
"C 	c #000000",
"D 	c #000000",
"E 	c #000000",
"F 	c #000000",
"G 	c #000000",
"H 	c #000000",
"I 	c #000000",
"J 	c #000000",
"K 	c #000000",
"L 	c #000000",
"M 	c #000000",
"N 	c #000000",
"O 	c #000000",
"P 	c #000000",
"Q 	c #000000",
"R 	c #000000",
"S 	c #000000",
"T 	c #000000",
"U 	c #000000",
"V 	c #000000",
"W 	c #000000",
"X 	c #000000",
"Y 	c #000000",
"Z 	c #000000",
"` 	c #000000",
" .	c #000000",
"..	c #000000",
"+.	c #000000",
"@.	c #000000",
"#.	c #000000",
"$.	c #000000",
"%.	c #000000",
"&.	c #000000",
"*.	c #000000",
"=.	c #000000",
"-.	c #000000",
";.	c #000000",
">.	c #000000",
",.	c #000000",
"'.	c #000000",
").	c #000000",
"!.	c #000000",
"~.	c #000000",
"{.	c #000000",
"].	c #000000",
"^.	c #000000",
"/.	c #000000",
"(.	c #000000",
"_.	c #000000",
":.	c #000000",
"<.	c #000000",
"[.	c #000000",
"}.	c #000000",
"|.	c #000000",
"1.	c #000000",
"2.	c #000000",
"3.	c #000000",
"4.	c #000000",
"5.	c #000000",
"6.	c #000000",
"7.	c #000000",
"8.	c #747474",
"9.	c #24188C",
"0.	c #0000A8",
"a.	c #44009C",
"b.	c #8C0074",
"c.	c #A80010",
"d.	c #A40000",
"e.	c #7C0800",
"f.	c #402C00",
"g.	c #004400",
"h.	c #005000",
"i.	c #003C14",
"j.	c #183C5C",
"k.	c #000000",
"l.	c #000000",
"m.	c #000000",
"n.	c #BCBCBC",
"o.	c #0070EC",
"p.	c #2038EC",
"q.	c #8000F0",
"r.	c #BC00BC",
"s.	c #E40058",
"t.	c #D82800",
"u.	c #C84C0C",
"v.	c #887000",
"w.	c #009400",
"x.	c #00A800",
"y.	c #009038",
"z.	c #008088",
"A.	c #000000",
"B.	c #000000",
"C.	c #000000",
"D.	c #FCFCFC",
"E.	c #3CBCFC",
"F.	c #5C94FC",
"G.	c #4088FC",
"H.	c #F478FC",
"I.	c #FC74B4",
"J.	c #FC7460",
"K.	c #FC9838",
"L.	c #F0BC3C",
"M.	c #80D010",
"N.	c #4CDC48",
"O.	c #58F898",
"P.	c #00E8D8",
"Q.	c #787878",
"R.	c #000000",
"S.	c #000000",
"T.	c #FCFCFC",
"U.	c #A8E4FC",
"V.	c #C4D4FC",
"W.	c #D4C8FC",
"X.	c #FCC4FC",
"Y.	c #FCC4D8",
"Z.	c #FCBCB0",
"`.	c #FCD8A8",
" +	c #FCE4A0",
".+	c #E0FCA0",
"++	c #A8F0BC",
"@+	c #B0FCCC",
"#+	c #9CFCF0",
"$+	c #C4C4C4",
"%+	c #000000",
"&+	c #000000",
"*+	c #575757",
"=+	c #1B1269",
"-+	c #00007E",
";+	c #330075",
">+	c #690057",
",+	c #7E000C",
"'+	c #7B0000",
")+	c #5D0600",
"!+	c #302100",
"~+	c #003300",
"{+	c #003C00",
"]+	c #002D0F",
"^+	c #122D45",
"/+	c #000000",
"(+	c #000000",
"_+	c #000000",
":+	c #8D8D8D",
"<+	c #0054B1",
"[+	c #182AB1",
"}+	c #6000B4",
"|+	c #8D008D",
"1+	c #AB0042",
"2+	c #A21E00",
"3+	c #963909",
"4+	c #665400",
"5+	c #006F00",
"6+	c #007E00",
"7+	c #006C2A",
"8+	c #006066",
"9+	c #000000",
"0+	c #000000",
"a+	c #000000",
"b+	c #BDBDBD",
"c+	c #2D8DBD",
"d+	c #456FBD",
"e+	c #3066BD",
"f+	c #B75ABD",
"g+	c #BD5787",
"h+	c #BD5748",
"i+	c #BD722A",
"j+	c #B48D2D",
"k+	c #609C0C",
"l+	c #39A536",
"m+	c #42BA72",
"n+	c #00AEA2",
"o+	c #5A5A5A",
"p+	c #000000",
"q+	c #000000",
"r+	c #BDBDBD",
"s+	c #7EABBD",
"t+	c #939FBD",
"u+	c #9F96BD",
"v+	c #BD93BD",
"w+	c #BD93A2",
"x+	c #BD8D84",
"y+	c #BDA27E",
"z+	c #BDAB78",
"A+	c #A8BD78",
"B+	c #7EB48D",
"C+	c #84BD99",
"D+	c #75BDB4",
"E+	c #939393",
"F+	c #000000",
"G+	c #000000",
"9.9.9.9.9.9.9.9.9.9.9.9.9.9.9.9.9.9.T.T.9.9.9.9.9.9.9.9.9.9.9.9.",
"9.9.9.9.9.9.9.9.9.9.9.9.9.9.9.9.9.9.T.T.9.9.9.9.9.9.9.9.9.9.9.9.",
"9.9.9.9.9.9.9.9.9.9.9.9.F.F.F.F.F.F.T.T.9.9.9.9.9.9.9.9.9.9.9.9.",
"9.9.9.9.9.9.9.9.9.9.9.9.F.F.F.F.F.F.T.T.9.9.9.9.9.9.9.9.9.9.9.9.",
"9.9.9.9.9.9.9.9.F.F.F.F.T.T.F.F.T.T.T.T.T.T.F.F.T.T.9.9.T.T.9.9.",
"9.9.9.9.9.9.9.9.F.F.F.F.T.T.F.F.T.T.T.T.T.T.F.F.T.T.9.9.T.T.9.9.",
"9.9.9.9.9.9.F.F.F.F.F.F.F.F.F.F.F.F.T.T.F.F.F.F.F.F.9.9.9.9.9.9.",
"9.9.9.9.9.9.F.F.F.F.F.F.F.F.F.F.F.F.T.T.F.F.F.F.F.F.9.9.9.9.9.9.",
"9.9.9.9.F.F.F.F.F.F.T.T.T.T.T.T.F.F.T.T.F.F.F.F.F.F.F.F.9.9.9.9.",
"9.9.9.9.F.F.F.F.F.F.T.T.T.T.T.T.F.F.T.T.F.F.F.F.F.F.F.F.9.9.9.9.",
"9.9.9.9.F.F.F.F.T.T.T.T.T.T.F.F.F.F.T.T.F.F.F.F.F.F.F.F.9.9.9.9.",
"9.9.9.9.F.F.F.F.T.T.T.T.T.T.F.F.F.F.T.T.F.F.F.F.F.F.F.F.9.9.9.9.",
"9.9.F.F.F.F.T.T.T.T.T.T.F.F.F.F.F.F.T.T.F.F.F.F.F.F.F.F.F.F.9.9.",
"9.9.F.F.F.F.T.T.T.T.T.T.F.F.F.F.F.F.T.T.F.F.F.F.F.F.F.F.F.F.9.9.",
"9.9.F.F.F.F.T.T.T.T.F.F.F.F.F.F.F.F.F.F.F.F.F.F.F.F.F.F.F.F.9.9.",
"9.9.F.F.F.F.T.T.T.T.F.F.F.F.F.F.F.F.F.F.F.F.F.F.F.F.F.F.F.F.9.9.",
"9.9.F.F.F.F.T.T.F.F.F.F.F.F.F.F.F.F.F.F.F.F.F.F.F.F.F.F.F.F.9.9.",
"9.9.F.F.F.F.T.T.F.F.F.F.F.F.F.F.F.F.F.F.F.F.F.F.F.F.F.F.F.F.9.9.",
"9.9.F.F.F.F.F.F.F.F.F.F.F.F.F.F.F.F.F.F.F.F.F.F.F.F.F.F.F.F.9.9.",
"9.9.F.F.F.F.F.F.F.F.F.F.F.F.F.F.F.F.F.F.F.F.F.F.F.F.F.F.F.F.9.9.",
"9.9.9.9.F.F.F.F.F.F.F.F.F.F.F.F.F.F.F.F.F.F.F.F.F.F.F.F.9.9.9.9.",
"9.9.9.9.F.F.F.F.F.F.F.F.F.F.F.F.F.F.F.F.F.F.F.F.F.F.F.F.9.9.9.9.",
"9.9.9.9.F.F.F.F.F.F.F.F.F.F.F.F.F.F.F.F.F.F.F.F.F.F.F.F.9.9.9.9.",
"9.9.9.9.F.F.F.F.F.F.F.F.F.F.F.F.F.F.F.F.F.F.F.F.F.F.F.F.9.9.9.9.",
"9.9.T.T.9.9.F.F.F.F.F.F.F.F.F.F.F.F.F.F.F.F.F.F.F.F.9.9.T.T.9.9.",
"9.9.T.T.9.9.F.F.F.F.F.F.F.F.F.F.F.F.F.F.F.F.F.F.F.F.9.9.T.T.9.9.",
"T.T.9.9.T.T.9.9.F.F.F.F.F.F.F.F.F.F.F.F.F.F.F.F.9.9.T.T.9.9.T.T.",
"T.T.9.9.T.T.9.9.F.F.F.F.F.F.F.F.F.F.F.F.F.F.F.F.9.9.T.T.9.9.T.T.",
"9.9.T.T.T.T.T.T.9.9.9.9.F.F.F.F.F.F.F.F.9.9.9.9.T.T.T.T.T.T.9.9.",
"9.9.T.T.T.T.T.T.9.9.9.9.F.F.F.F.F.F.F.F.9.9.9.9.T.T.T.T.T.T.9.9.",
"9.9.9.9.9.9.9.9.T.T.T.T.9.9.9.9.9.9.9.9.T.T.T.T.9.9.9.9.9.9.9.9.",
"9.9.9.9.9.9.9.9.T.T.T.T.9.9.9.9.9.9.9.9.T.T.T.T.9.9.9.9.9.9.9.9."};
